# xmcd CD database file
# Copyright (C) 1997 Ti Kan
# 
# Track frame offsets:
#     150
#     14980
#     23577
#     39472
#     57125
#     75015
#     90487
#     106160
# 
# Disc length: 1717 seconds
# 
# Revision: 1
# Processed by: cddbd v1.4b41PL1 Copyright (c) Steve Scherf et al.
# Submitted via: DiscPlay 4.0.4
# 
DISCID=4d06b308
DTITLE=B. B. King - The World of B. B. King - Lonely Nights
DYEAR=1900
DGENRE=
TTITLE0=B.B. Boogie
TTITLE1=A New Way Of Driving
TTITLE2=Lonely Nights
TTITLE3=That Evil Child
TTITLE4=Paying The Cost To Be The Boss
TTITLE5=Walkin' And Cryin'
TTITLE6=The Letter
TTITLE7=Every Day I Have The Blues
EXTD=
EXTT0=B.B. King and J. Taub\n
EXTT1=B.B. King and S. Ling\n
EXTT2=
EXTT3=J. Josea and B.B. King\n
EXTT4=B.B. King\n
EXTT5=B.B. King and S Ling\n
EXTT6=
EXTT7=P. Chatman\n
PLAYORDER=
